<svg id="visual" viewBox="0 0 960 540" width="960" height="540" xmlns="http://www.w3.org/2000/svg" xmlns:xlink="http://www.w3.org/1999/xlink" version="1.1"><rect x="0" y="0" width="960" height="540" fill="#f9f7fd"></rect><path d="M0 208L22.8 209.3C45.7 210.7 91.3 213.3 137 204.8C182.7 196.3 228.3 176.7 274 174.3C319.7 172 365.3 187 411.2 185.5C457 184 503 166 548.8 159.7C594.7 153.3 640.3 158.7 686 171C731.7 183.3 777.3 202.7 823 204.2C868.7 205.7 914.3 189.3 937.2 181.2L960 173L960 0L937.2 0C914.3 0 868.7 0 823 0C777.3 0 731.7 0 686 0C640.3 0 594.7 0 548.8 0C503 0 457 0 411.2 0C365.3 0 319.7 0 274 0C228.3 0 182.7 0 137 0C91.3 0 45.7 0 22.8 0L0 0Z" fill="#ff4d61"></path><path d="M0 110L22.8 116.5C45.7 123 91.3 136 137 140.5C182.7 145 228.3 141 274 139.3C319.7 137.7 365.3 138.3 411.2 134.3C457 130.3 503 121.7 548.8 119.8C594.7 118 640.3 123 686 133C731.7 143 777.3 158 823 165.7C868.7 173.3 914.3 173.7 937.2 173.8L960 174L960 0L937.2 0C914.3 0 868.7 0 823 0C777.3 0 731.7 0 686 0C640.3 0 594.7 0 548.8 0C503 0 457 0 411.2 0C365.3 0 319.7 0 274 0C228.3 0 182.7 0 137 0C91.3 0 45.7 0 22.8 0L0 0Z" fill="#f24164"></path><path d="M0 136L22.8 128.7C45.7 121.3 91.3 106.7 137 99.3C182.7 92 228.3 92 274 92.8C319.7 93.7 365.3 95.3 411.2 95.5C457 95.7 503 94.3 548.8 91.8C594.7 89.3 640.3 85.7 686 91.3C731.7 97 777.3 112 823 120.8C868.7 129.7 914.3 132.3 937.2 133.7L960 135L960 0L937.2 0C914.3 0 868.7 0 823 0C777.3 0 731.7 0 686 0C640.3 0 594.7 0 548.8 0C503 0 457 0 411.2 0C365.3 0 319.7 0 274 0C228.3 0 182.7 0 137 0C91.3 0 45.7 0 22.8 0L0 0Z" fill="#e43666"></path><path d="M0 72L22.8 73.2C45.7 74.3 91.3 76.7 137 81.5C182.7 86.3 228.3 93.7 274 96.7C319.7 99.7 365.3 98.3 411.2 96.7C457 95 503 93 548.8 91C594.7 89 640.3 87 686 83.8C731.7 80.7 777.3 76.3 823 79.2C868.7 82 914.3 92 937.2 97L960 102L960 0L937.2 0C914.3 0 868.7 0 823 0C777.3 0 731.7 0 686 0C640.3 0 594.7 0 548.8 0C503 0 457 0 411.2 0C365.3 0 319.7 0 274 0C228.3 0 182.7 0 137 0C91.3 0 45.7 0 22.8 0L0 0Z" fill="#d52c67"></path><path d="M0 45L22.8 47C45.7 49 91.3 53 137 53.3C182.7 53.7 228.3 50.3 274 48.2C319.7 46 365.3 45 411.2 47C457 49 503 54 548.8 52.3C594.7 50.7 640.3 42.3 686 36.2C731.7 30 777.3 26 823 29.8C868.7 33.7 914.3 45.3 937.2 51.2L960 57L960 0L937.2 0C914.3 0 868.7 0 823 0C777.3 0 731.7 0 686 0C640.3 0 594.7 0 548.8 0C503 0 457 0 411.2 0C365.3 0 319.7 0 274 0C228.3 0 182.7 0 137 0C91.3 0 45.7 0 22.8 0L0 0Z" fill="#c62368"></path></svg>