<svg xmlns="http://www.w3.org/2000/svg" version="1.0" preserveAspectRatio="xMidYMid meet" viewBox="330.97 283.5 134.43 167.11">
<metadata>
Created by potrace 1.16, written by Peter Selinger 2001-2019
</metadata>
<g transform="translate(0.000000,745.000000) scale(0.100000,-0.100000)" fill="#000000" stroke="none">
<path d="M3826 4604 c-3 -8 -13 -14 -23 -14 -18 0 -27 -17 -71 -120 -29 -69 -32 -78 -22 -82 5 -2 6 -14 3 -28 l-7 -25 -7 25 -7 25 -1 -25 c-1 -15 -5 -30 -10 -35 -19 -21 -144 -361 -138 -377 2 -7 -2 -21 -10 -30 -8 -9 -16 -28 -17 -41 0 -14 -4 -23 -8 -21 -6 4 -22 -46 -23 -71 0 -5 -3 -13 -8 -16 -4 -3 -9 -20 -12 -37 -5 -41 -26 -63 -48 -50 -13 7 -17 5 -17 -11 0 -11 -4 -22 -9 -25 -5 -3 -7 -16 -4 -29 4 -18 3 -19 -7 -7 -9 12 -11 10 -7 -12 2 -15 1 -25 -4 -22 -9 5 -8 -37 1 -51 14 -20 21 -115 9 -115 -6 0 -9 -7 -5 -15 3 -8 1 -27 -4 -42 -9 -29 -22 -133 -23 -190 0 -18 -3 -30 -7 -28 -3 2 -6 -4 -6 -13 -1 -9 -5 -30 -9 -46 -6 -23 -5 -27 6 -21 12 8 12 6 1 -8 -8 -9 -10 -22 -6 -28 4 -8 3 -9 -4 -5 -17 10 -16 -35 1 -58 10 -14 18 -15 40 -7 15 6 33 8 40 5 14 -5 56 30 59 49 0 7 2 17 2 22 1 6 4 15 8 20 22 35 68 170 63 185 -3 10 -1 21 4 25 7 4 8 -1 5 -12 -5 -15 -4 -16 5 -3 6 8 11 23 11 33 0 31 53 97 77 97 12 0 24 -3 27 -8 9 -14 99 -76 91 -61 -6 10 -3 9 11 -2 23 -20 103 -59 120 -59 6 0 14 -7 18 -15 3 -8 14 -15 25 -15 11 0 23 -5 26 -11 4 -6 14 -8 22 -5 8 3 12 2 9 -3 -8 -12 50 -35 65 -25 7 4 10 3 5 -4 -4 -6 1 -11 11 -11 10 0 43 -4 73 -9 50 -8 58 -7 88 16 29 22 45 41 23 27 -5 -3 -13 0 -17 6 -4 8 -3 9 4 5 7 -4 12 0 13 11 0 13 2 14 6 4 4 -10 9 -8 20 10 11 18 13 19 8 4 -5 -17 -4 -18 7 -7 11 11 10 16 -4 26 -10 7 -18 18 -18 24 0 6 -12 20 -26 31 -21 16 -30 18 -40 10 -10 -8 -18 -8 -26 -1 -7 5 -26 10 -41 10 -15 0 -33 7 -40 16 -7 9 -29 17 -54 19 -23 1 -41 4 -41 7 1 21 -4 30 -17 30 -9 0 -32 8 -53 19 -20 10 -54 21 -74 25 -21 4 -38 12 -38 18 0 6 -9 8 -20 5 -10 -3 -19 -2 -18 2 2 19 -4 22 -19 10 -11 -10 -14 -10 -9 -1 4 7 1 12 -8 12 -9 0 -25 14 -38 30 -12 17 -28 30 -36 30 -25 0 -6 25 22 27 16 1 24 -2 20 -9 -4 -6 1 -6 15 1 18 10 20 9 14 -5 -4 -12 -3 -15 5 -10 7 4 22 -2 34 -13 12 -12 24 -18 27 -15 3 3 -1 9 -9 14 -8 5 -15 24 -16 42 -1 18 1 28 3 21 3 -7 12 -3 27 10 12 12 21 25 19 30 -2 4 1 7 8 7 7 0 26 11 43 24 17 13 41 26 54 30 12 4 20 12 16 17 -3 6 -13 8 -23 4 -12 -5 -13 -3 -5 5 8 8 18 9 30 2 23 -11 47 -5 38 10 -4 6 -2 8 4 4 14 -8 174 72 167 84 -3 6 1 7 10 4 22 -9 128 63 121 82 -3 8 -1 14 4 14 6 0 10 -5 10 -12 0 -7 5 -6 13 3 6 9 36 35 65 58 28 24 49 48 45 53 -3 7 -1 8 6 4 6 -4 18 0 27 8 8 9 13 16 10 16 -11 0 33 39 80 72 26 18 52 42 58 53 6 11 13 22 16 25 3 3 11 17 17 32 11 25 10 26 -10 22 -12 -3 -27 -6 -33 -7 -6 -2 -22 -10 -35 -18 -13 -9 -45 -25 -71 -37 -27 -11 -48 -26 -48 -31 0 -6 -6 -11 -14 -11 -8 0 -17 -7 -20 -16 -4 -9 -9 -14 -13 -10 -3 3 -13 -3 -21 -15 -8 -11 -20 -18 -27 -15 -7 2 -16 -2 -19 -10 -3 -8 -13 -14 -21 -14 -10 0 -13 -5 -9 -12 4 -7 3 -8 -5 -4 -13 9 -64 -28 -53 -39 4 -3 3 -6 -3 -4 -15 4 -65 -23 -60 -31 3 -5 -2 -11 -11 -14 -9 -3 -12 -2 -8 5 3 6 -3 5 -15 -3 -12 -7 -21 -16 -21 -19 0 -3 -18 -14 -40 -24 -30 -13 -37 -21 -28 -28 9 -6 8 -7 -5 -3 -15 5 -111 -37 -102 -45 2 -2 -19 -5 -46 -7 -27 -1 -49 1 -50 5 0 4 -2 23 -3 40 -3 21 0 30 7 26 6 -4 8 0 4 10 -4 10 -2 17 4 17 6 0 9 7 5 15 -3 8 -1 15 4 15 5 0 7 9 5 20 -3 13 0 18 7 14 7 -5 9 0 6 14 -4 12 -2 20 2 17 12 -7 23 32 14 46 -4 8 -3 9 4 5 7 -4 14 7 18 31 4 21 11 41 17 44 5 4 11 28 12 54 2 26 7 50 11 53 4 4 4 -6 1 -23 -6 -29 -6 -29 4 -5 6 14 17 36 24 50 7 14 10 31 7 39 -3 9 0 11 8 6 10 -6 12 -2 8 13 -4 12 -2 20 2 17 11 -7 23 51 14 66 -4 8 -3 9 4 5 6 -3 16 2 21 13 14 25 14 44 1 36 -5 -3 -10 2 -10 12 0 10 -10 25 -21 33 -12 8 -27 20 -33 26 -7 6 -23 15 -36 19 -14 4 -32 14 -41 21 -23 21 -96 26 -103 8z"/>
</g>
</svg>